<?xml version="1.0" encoding="utf-8"?>
<!-- Generator: Adobe Illustrator 24.0.2, SVG Export Plug-In . SVG Version: 6.00 Build 0)  -->
<svg version="1.1" id="Capa_2_1_" xmlns="http://www.w3.org/2000/svg" xmlns:xlink="http://www.w3.org/1999/xlink" x="0px" y="0px"
	 width="792px" height="612px" viewBox="0 0 792 612" enable-background="new 0 0 792 612" xml:space="preserve">
<path fill="#CBCACA" stroke="#EF8C1A" stroke-miterlimit="10" d="M98.36,188.42c-23.76,0.36-23.04,20.16-23.04,20.16v115.56
	c-0.72,10.8-8.64,11.16-8.64,11.16H58.4c-24.84,0.72-25.56,47.88,0,49.68h22.68c32.4-0.72,42.84-20.52,43.92-48.96V207.86
	C125,185.54,98.36,188.42,98.36,188.42z"/>
<path fill="#CBCACA" stroke="#EF8C1A" stroke-miterlimit="10" d="M341.26,350.55l-74.64-149.12c-8.66-17.3-33.36-17.3-42.02,0
	l-74.64,149.12c-7.82,15.62,3.54,34.01,21.01,34.01h149.29C337.72,384.56,349.08,366.17,341.26,350.55z M213.2,334.94l32.76-67.68
	l32.76,67.68H213.2z"/>
<path fill="#CBCACA" stroke="#EF8C1A" stroke-miterlimit="10" d="M537.92,216.14c0.72-28.44-20.16-27.68-20.16-27.68h-91.8
	c-29.96,2.48-48.6,13.64-56.27,39.02c-10.52,34.79,2.34,78.52,53.39,82.26c39.6,2.52,51.84,1.8,51.84,1.8
	c18.72,0.72,16.56,23.4,0,23.4h-87.35c-28.57,0-28.93,49.63-1.57,49.63l79.56,0.17c27.56-0.05,51.67-7.71,62.64-24.6
	c22.68-34.92,10.13-98-55.08-99l-42.48-0.72c-18.36-0.72-23.4-20.52,3.96-21.96l79.92-0.36
	C539.59,239.54,537.92,216.14,537.92,216.14z"/>
<path fill="#CBCACA" stroke="#EF8C1A" stroke-miterlimit="10" d="M730.16,213.62c0.72-24.48-18.36-25.16-18.36-25.16H578.24
	c-20.16,0.32-19.08,22.28-19.08,22.28l-0.01,153.36c-0.71,20.52,18.73,20.64,18.73,20.64h135c23.76-1.92,26.64-46.56-2.88-49.44
	l-101.16-0.36V238.1l104.04-0.36C732.68,235.58,730.16,213.62,730.16,213.62z"/>
<path fill="#CBCACA" stroke="#EF8C1A" stroke-miterlimit="10" d="M693.26,312.26h-49.32c-13.82,0-25.02-11.2-25.02-25.02l0,0
	c0-13.82,11.2-25.02,25.02-25.02h49.32c13.82,0,25.02,11.2,25.02,25.02l0,0C718.28,301.05,707.08,312.26,693.26,312.26z"/>
</svg>
